<svg width="198" height="173" viewBox="0 0 198 173" fill="none" xmlns="http://www.w3.org/2000/svg">
<g id="7993251 1" clip-path="url(#clip0_14_338)">
<g id="Group">
<path id="Vector" d="M92.8125 -13.311C88.868 -11.3282 85.8516 -6.70161 85.8516 -2.66255C85.8516 1.52339 88.636 6.07652 92.5031 8.20621L95.9063 10.1156V19.9562V29.7234L98.2266 32.2203C99.5414 33.689 101.862 35.0843 103.795 35.5984C111.53 37.8015 116.248 41.3999 119.496 47.4953C123.286 54.4718 124.678 54.0312 98.6133 54.0312H75.7969V47.7156V41.4734L79.3547 43.8968C81.2883 45.2187 83.0672 46.5406 83.2219 46.8343C83.8406 47.7156 87.0117 47.4953 88.0172 46.5406C89.7961 44.8515 88.868 43.0156 84.5367 39.6375C77.5758 34.4234 74.5594 33.9093 71.1563 37.1406C69.8414 38.389 69.6094 39.6375 69.6094 46.3203V54.0312H46.793C21.8883 54.0312 20.9602 54.1781 18.0985 58.2171C16.7063 60.2 16.6289 62.6234 16.3969 112.267C16.2422 161.911 16.2422 164.408 17.6344 167.419C20.4188 173.367 14.9274 173 99 173C183.073 173 177.581 173.367 180.366 167.419C181.758 164.408 181.758 161.911 181.603 112.267C181.371 62.6234 181.294 60.2 179.902 58.2171C177.04 54.1781 176.112 54.0312 151.207 54.0312C131.252 54.0312 128.391 53.8843 128.391 52.9296C128.391 50.5062 125.22 43.5296 122.59 40.1515C119.573 36.1859 113.463 32 108.668 30.5312C102.094 28.6218 102.094 28.6218 102.094 18.8546V10.1156L105.497 8.20621C109.364 6.07652 112.148 1.52339 112.148 -2.66255C112.148 -8.90474 105.652 -15 99 -15C97.4531 -15 94.6688 -14.2657 92.8125 -13.311ZM103.409 -6.77504C105.342 -5.08598 105.806 -1.34067 104.414 1.1562C103.331 3.13902 99.4641 4.16714 96.6797 3.21245C93.8953 2.33121 92.8125 0.642136 92.8125 -2.58911C92.8125 -7.72974 99.3867 -10.3735 103.409 -6.77504ZM70.3055 63.2843C72.1617 70.114 77.4211 77.164 83.6086 80.8359C93.8953 87.0781 107.817 86.2703 117.563 78.9265C121.894 75.6953 123.286 73.7124 122.59 71.6562C121.662 68.8656 119.264 69.1593 115.552 72.3906C106.038 80.7625 93.3539 81.0562 84.15 73.1984C81.9071 71.289 79.4321 68.2781 78.4266 66.1484C75.0235 59.2453 70.4602 59.9062 122.59 59.9062C147.881 59.9062 168.609 60.0531 168.609 60.2C168.609 60.4937 117.717 100.737 103.409 111.827C98.9227 115.278 99.3867 115.645 63.0352 87.0781C44.55 72.464 29.3906 60.4203 29.3906 60.2734C29.3906 60.0531 38.3625 59.9062 49.4227 59.9062H69.4547L70.3055 63.2843ZM54.6047 88.5468C71.6203 101.912 85.4649 113.075 85.4649 113.442C85.4649 113.956 26.6063 160.809 24.0539 162.278C23.4352 162.645 23.2031 148.839 23.2031 113.589C23.2031 86.4906 23.3578 64.3125 23.5125 64.3125C23.6672 64.3125 37.6664 75.2546 54.6047 88.5468ZM174.642 138.117L174.41 162.719L143.473 138.411C126.457 125.045 112.535 113.809 112.535 113.516C112.535 113.148 126.457 101.912 143.473 88.4734L174.41 64.0921L174.642 88.8406C174.72 102.427 174.72 124.605 174.642 138.117ZM99 118.95C101.784 118.95 104.723 118.656 105.574 118.436C106.812 117.995 112.922 122.475 137.672 141.936L168.223 166.023L133.573 166.244C114.546 166.317 83.4539 166.317 64.4274 166.244L29.8547 166.023L60.4055 141.936C84.9235 122.622 91.1883 117.995 92.4258 118.436C93.2766 118.73 96.2156 118.95 99 118.95Z" fill="#053E4A"/>
</g>
</g>
<defs>
<clipPath id="clip0_14_338">
<rect width="198" height="188" fill="white" transform="translate(0 -15)"/>
</clipPath>
</defs>
</svg>
