<svg width="192" height="192" viewBox="0 0 192 192" fill="none" xmlns="http://www.w3.org/2000/svg">
<g id="atm">
<path id="Vector" d="M174.136 21.958L183.814 31.9458" stroke="#053E4A" stroke-width="2" stroke-linecap="round" stroke-linejoin="round"/>
<path id="Vector_2" d="M183.814 21.958L174.136 31.9458" stroke="#053E4A" stroke-width="2" stroke-linecap="round" stroke-linejoin="round"/>
<path id="Vector_3" d="M143.045 7.99757C145.186 7.99757 146.92 6.20726 146.92 3.99879C146.92 1.79032 145.186 0 143.045 0C140.905 0 139.171 1.79032 139.171 3.99879C139.171 6.20726 140.905 7.99757 143.045 7.99757Z" fill="#053E4A"/>
<path id="Vector_4" d="M182.899 78.7578C186.839 78.7578 190.032 75.4621 190.032 71.3966C190.032 67.3311 186.839 64.0353 182.899 64.0353C178.959 64.0353 175.766 67.3311 175.766 71.3966C175.766 75.4621 178.959 78.7578 182.899 78.7578Z" stroke="#053E4A" stroke-width="2" stroke-linecap="round" stroke-linejoin="round"/>
<path id="Vector_5" d="M141.335 38.9288H24.9531V116.616H141.335V38.9288Z" stroke="#053E4A" stroke-width="2" stroke-linecap="round" stroke-linejoin="round"/>
<path id="Vector_6" d="M154.984 113.085V32.9529C154.984 30.7916 154.152 28.7189 152.671 27.1907C151.191 25.6624 149.182 24.8038 147.088 24.8038H19.1623C17.068 24.8038 15.0594 25.6624 13.5785 27.1907C12.0976 28.7189 11.2656 30.7916 11.2656 32.9529V113.085L1 144.866V158.991H165.25V144.866L154.984 113.085Z" stroke="#053E4A" stroke-width="2" stroke-linecap="round" stroke-linejoin="round"/>
<path id="Vector_7" d="M154.984 160.084V190.773" stroke="#053E4A" stroke-width="2" stroke-linecap="round" stroke-linejoin="round"/>
<path id="Vector_8" d="M11.2656 190.773V160.26" stroke="#053E4A" stroke-width="2" stroke-linecap="round" stroke-linejoin="round"/>
<path id="Vector_9" d="M107.078 130.741H141.297" stroke="#053E4A" stroke-width="2" stroke-linecap="round" stroke-linejoin="round"/>
<path id="Vector_10" d="M62.5938 169.585H24.9531V183.71H62.5938V169.585Z" stroke="#053E4A" stroke-width="2" stroke-linecap="round" stroke-linejoin="round"/>
<path id="Vector_11" d="M124.188 173.116V176.648" stroke="#053E4A" stroke-width="2" stroke-linecap="round" stroke-linejoin="round"/>
<path id="Vector_12" d="M134.453 173.116V176.648" stroke="#053E4A" stroke-width="2" stroke-linecap="round" stroke-linejoin="round"/>
<path id="Vector_13" d="M37.42 131.124C37.42 133.332 32.2633 135.122 30.1236 135.122C29.6117 135.127 29.1039 135.027 28.6295 134.829C28.1552 134.63 27.7237 134.336 27.3601 133.964C26.9964 133.593 26.7077 133.15 26.5107 132.663C26.3137 132.175 26.2122 131.652 26.2122 131.124C26.2122 130.595 26.3137 130.072 26.5107 129.585C26.7077 129.097 26.9964 128.655 27.3601 128.283C27.7237 127.911 28.1552 127.617 28.6295 127.419C29.1039 127.22 29.6117 127.12 30.1236 127.125C32.2633 127.125 37.42 128.915 37.42 131.124Z" fill="#053E4A"/>
<path id="Vector_14" d="M43.8111 135.123C45.9512 135.123 47.686 133.332 47.686 131.124C47.686 128.915 45.9512 127.125 43.8111 127.125C41.671 127.125 39.9362 128.915 39.9362 131.124C39.9362 133.332 41.671 135.123 43.8111 135.123Z" fill="#053E4A"/>
<path id="Vector_15" d="M83.125 106.023C98.2438 106.023 110.5 93.3746 110.5 77.7726C110.5 62.1706 98.2438 49.5226 83.125 49.5226C68.0062 49.5226 55.75 62.1706 55.75 77.7726C55.75 93.3746 68.0062 106.023 83.125 106.023Z" stroke="#053E4A" stroke-width="2" stroke-linecap="round" stroke-linejoin="round"/>
<path id="Vector_16" d="M93.3906 67.1788H72.8594V77.7726H93.3906V88.3663H72.8594" stroke="#053E4A" stroke-width="2" stroke-linecap="round" stroke-linejoin="round"/>
<path id="Vector_17" d="M83.125 60.1163V95.4288" stroke="#053E4A" stroke-width="2" stroke-linecap="round" stroke-linejoin="round"/>
<path id="Vector_18" d="M165.25 144.866H1" stroke="#053E4A" stroke-width="2" stroke-linejoin="round"/>
</g>
</svg>
