<svg width="182" height="182" viewBox="0 0 182 182" fill="none" xmlns="http://www.w3.org/2000/svg">
<g id="Group">
<path id="Vector" d="M158.146 1.32798C154.64 2.93501 153.106 4.54204 151.572 8.19438C150.184 11.4815 150.184 14.6225 151.499 17.7635C152.522 20.1741 152.449 20.3202 150.33 22.3655C146.532 25.9448 146.094 27.844 146.094 42.1612C146.094 51.292 146.386 55.4557 146.97 56.0401C148.212 57.2819 179.038 57.2819 180.28 56.0401C180.864 55.4557 181.156 51.292 181.156 42.1612C181.156 27.844 180.718 25.9448 176.92 22.3655C174.801 20.3202 174.728 20.1741 175.751 17.7635C177.139 14.4764 176.993 11.1163 175.386 7.61001C173.779 4.10376 172.171 2.56977 168.519 1.03579C165.013 -0.425148 161.726 -0.3521 158.146 1.32798ZM167.204 6.80649C171.879 9.29008 172.098 15.5721 167.496 19.1514C164.502 21.562 165.524 24.1186 169.907 25.0682C174.436 26.0909 174.947 27.3327 175.166 39.8237L175.386 51.0729H163.625H151.864L152.084 39.8237C152.303 27.3327 152.814 26.0909 157.343 25.0682C161.726 24.1917 162.895 21.3428 159.754 19.2975C151.938 14.1842 158.877 2.56977 167.204 6.80649Z" fill="#053E4A"/>
<path id="Vector_2" d="M106.502 3.66549C105.407 4.24986 105.187 5.41861 105.187 9.43619V14.5495H95.3992C83.6387 14.5495 76.2609 15.4991 68.2988 17.9827C34.6973 28.5014 12.7832 60.0577 14.9016 94.901C15.3398 102.863 17.0199 111.264 18.4078 112.944C19.4305 114.185 21.5488 114.112 22.6445 112.798C23.375 111.848 23.3019 110.533 22.2062 105.639C20.234 96.9463 20.3801 82.8483 22.4984 74.0827C27.7578 52.753 43.0246 34.7835 63.4777 26.0178C72.6816 22.0733 78.2332 21.0506 92.2582 20.6124L105.187 20.1741V25.2874C105.187 30.2545 105.918 32.0807 107.89 32.0807C108.475 32.0807 113.296 29.0858 118.701 25.5065C125.787 20.7585 128.562 18.494 128.562 17.4713C128.562 16.4487 125.787 14.1842 118.701 9.43619C113.296 5.8569 108.621 2.86197 108.328 2.86197C107.963 2.86197 107.16 3.2272 106.502 3.66549ZM115.779 14.2573C117.971 15.7182 119.797 17.1792 119.797 17.4713C119.797 17.9827 112.127 23.3151 111.396 23.3151C111.177 23.3151 111.031 20.6854 111.031 17.4713C111.031 14.2573 111.177 11.6276 111.396 11.6276C111.616 11.6276 113.588 12.7963 115.779 14.2573Z" fill="#053E4A"/>
<path id="Vector_3" d="M59.3141 51.9495C58.9488 52.4608 57.9992 55.1635 57.2688 58.0124C55.2965 65.6823 55.3695 81.4604 57.5609 90.0799C59.3141 97.0924 63.4777 106.662 67.2762 112.213C70.4902 116.961 89.1172 135.807 90.6512 135.807C91.3086 135.807 96.4219 131.132 102.046 125.362C115.487 111.629 119.943 104.105 123.595 89.2034C125.641 80.7299 125.714 67.7276 123.888 59.2542C121.842 50.2694 121.915 50.3424 114.538 52.6799C104.822 55.821 100.293 56.4784 90.2129 56.4053C80.4246 56.4053 74.3617 55.3827 66.1805 52.5338C61.1402 50.8538 60.3367 50.7807 59.3141 51.9495ZM75.8227 61.0073C87.4371 63.1987 104.968 62.176 114.611 58.7428L117.532 57.7202L118.336 60.4229C119.651 65.171 120.016 76.0549 119.139 82.4831C116.875 97.6038 111.762 107.392 99.2707 120.102L90.6512 128.868L83.6387 121.928C79.7672 118.13 75.1652 113.09 73.3391 110.679C66.5457 101.694 62.309 89.6417 61.5785 77.0045C61.2133 70.5764 62.1629 60.0577 63.2586 58.3045C63.4047 58.0124 64.9387 58.1584 66.5457 58.7428C68.1527 59.3272 72.3895 60.3499 75.8227 61.0073Z" fill="#053E4A"/>
<path id="Vector_4" d="M72.7547 74.0827C70.052 75.5436 68.7371 77.2967 68.6641 79.342C68.6641 81.8256 71.8781 82.41 74.0695 80.3647C76.1148 78.4655 77.5758 78.3924 79.2559 80.2917C81.5934 82.8483 85.3918 81.3874 84.4422 78.2463C83.1273 74.1557 76.8453 71.8913 72.7547 74.0827Z" fill="#053E4A"/>
<path id="Vector_5" d="M100.878 73.9366C98.0289 75.3975 95.9106 78.6116 96.8602 80.1456C98.0289 81.9717 100.293 82.0448 101.9 80.2917C103.58 78.3924 105.041 78.4655 107.087 80.3647C110.447 83.5057 114.318 80.1456 111.543 76.6393C108.84 73.2061 104.457 72.1104 100.878 73.9366Z" fill="#053E4A"/>
<path id="Vector_6" d="M79.1097 93.9514C77.5027 94.5358 78.0871 97.6038 80.1324 100.087C84.0769 104.762 90.5781 106.296 96.0566 103.74C102.046 101.037 105.187 94.7549 101.097 93.7323C99.4898 93.294 98.7594 93.6592 96.7871 96.0698C94.5226 98.6995 94.0844 98.9186 90.5781 98.9186C87.0719 98.9186 86.5605 98.6995 84.4422 96.1428C82.3238 93.5862 81.1551 93.0749 79.1097 93.9514Z" fill="#053E4A"/>
<path id="Vector_7" d="M158.512 68.2389C157.708 69.1885 157.781 70.4303 158.95 75.3975C160.922 84.0171 160.776 98.1881 158.658 106.881C153.545 127.553 139.812 144.354 120.454 153.631C109.936 158.744 104.165 159.986 88.9711 160.424L75.9688 160.862V155.749C75.9688 150.782 75.2383 148.956 73.266 148.956C72.6816 148.956 67.8605 151.951 62.4551 155.53C55.3695 160.278 52.5938 162.542 52.5938 163.565C52.5938 164.588 55.3695 166.852 62.4551 171.6C67.8605 175.18 72.6816 178.174 73.266 178.174C75.2383 178.174 75.9688 176.348 75.9688 171.527V166.706L89.3363 166.268C103.727 165.903 108.329 165.026 119.505 160.716C131.923 155.968 145.948 144.5 153.618 133.032C159.754 123.828 164.063 113.017 165.743 102.206C167.35 92.2713 166.182 75.1784 163.479 69.5538C162.383 67.2163 159.9 66.5589 158.512 68.2389ZM69.9789 166.414L69.7598 169.336L65.5961 166.779C63.2586 165.318 61.3594 163.93 61.3594 163.565C61.3594 163.2 63.2586 161.739 65.5961 160.278L69.7598 157.648L69.9789 160.643C70.125 162.25 70.125 164.88 69.9789 166.414Z" fill="#053E4A"/>
<path id="Vector_8" d="M12.0527 125.508C8.54648 127.115 7.0125 128.722 5.47852 132.374C4.09063 135.734 4.09063 138.802 5.47852 142.089C6.50117 144.646 6.50117 144.719 4.45586 146.472C0.438281 149.832 0 151.878 0 166.268C0 175.472 0.292188 179.635 0.876563 180.22C2.11836 181.462 32.9441 181.462 34.1859 180.22C34.7703 179.635 35.0625 175.545 35.0625 166.56C35.0625 152.462 34.332 149.321 30.3875 146.253C28.5613 144.792 28.5613 144.646 29.584 142.089C31.0449 138.656 30.9719 135.369 29.2918 131.79C27.6848 128.283 26.0777 126.749 22.4254 125.215C18.9191 123.755 15.632 123.828 12.0527 125.508ZM21.1105 130.986C25.4203 133.251 25.9316 138.218 22.2793 142.308C18.5539 146.399 18.9922 148.225 23.8133 149.248C28.3422 150.271 28.8535 151.512 29.0727 164.003L29.2918 175.253H17.5312H5.7707L5.98984 164.003C6.20898 151.512 6.72031 150.271 11.2492 149.248C16.0703 148.225 16.5086 146.399 12.7832 142.308C10.0074 139.24 9.56914 136.684 11.2492 133.689C13.1484 130.256 17.3852 129.087 21.1105 130.986Z" fill="#053E4A"/>
</g>
</svg>
