<svg width="117" height="114" viewBox="0 0 117 114" fill="none" xmlns="http://www.w3.org/2000/svg">
<path d="M92.3684 87.9626V110.764C92.3684 113.33 88.9948 114.537 87.1198 112.722L58.1604 87.9626H33.7439C26.1316 87.9626 19.916 82.1946 19.916 75.1304V25.7428C19.916 18.68 26.1316 12.9119 33.7439 12.9119H103.13C110.742 12.9119 116.958 18.6786 116.958 25.7428V75.1304C116.958 82.1946 110.742 87.9626 103.13 87.9626H92.3684ZM43.0068 43.7142C45.8902 43.7142 48.2273 45.8831 48.2273 48.5589C48.2273 51.2347 45.8902 53.4035 43.0068 53.4035C40.1234 53.4035 37.7863 51.2347 37.7863 48.5589C37.7863 45.8831 40.1234 43.7142 43.0068 43.7142ZM93.8669 43.7142C96.7503 43.7142 99.0874 45.8831 99.0874 48.5589C99.0874 51.2347 96.7503 53.4035 93.8669 53.4035C90.9835 53.4035 88.6464 51.2347 88.6464 48.5589C88.6464 45.8831 90.9835 43.7142 93.8669 43.7142ZM76.9135 43.7142C79.7969 43.7142 82.134 45.8831 82.134 48.5589C82.134 51.2347 79.7969 53.4035 76.9135 53.4035C74.0301 53.4035 71.693 51.2347 71.693 48.5589C71.693 45.8831 74.0301 43.7142 76.9135 43.7142ZM59.9601 43.7142C62.8435 43.7142 65.1807 45.8831 65.1807 48.5589C65.1807 51.2347 62.8435 53.4035 59.9601 53.4035C57.0768 53.4035 54.7396 51.2347 54.7396 48.5589C54.7396 45.8831 57.0768 43.7142 59.9601 43.7142ZM13.8702 69.7994C17.8801 69.7994 17.8801 75.4592 13.8702 75.4592C6.25796 75.4592 0.0423584 69.6911 0.0423584 62.6269V13.2393C0.0423584 6.17652 6.25796 0.408447 13.8702 0.408447H83.2576C87.2674 0.408447 87.2674 6.06692 83.2576 6.06692H13.8702C9.6256 6.06692 6.14132 9.30033 6.14132 13.2393V62.6269C6.14132 66.566 9.6256 69.7994 13.8702 69.7994ZM86.2709 104.317V85.132C86.2709 83.5701 87.6366 82.3028 89.3196 82.3028H103.13C107.374 82.3028 110.86 79.0694 110.86 75.1304V25.7428C110.86 21.8038 107.374 18.5704 103.13 18.5704H33.7439C29.4978 18.5704 26.0135 21.8038 26.0135 25.7428V75.1304C26.0135 79.0694 29.4978 82.3028 33.7439 82.3028L59.3415 82.3097C60.0783 82.3097 60.8179 82.5549 61.4026 83.055L86.2709 104.317Z" fill="black"/>
</svg>
