<svg width="151" height="159" viewBox="0 0 151 159" fill="none" xmlns="http://www.w3.org/2000/svg">
<g id="phone">
<g id="11. Phone">
<path id="Vector" d="M66.0625 29.8125C67.314 29.8125 68.5142 29.289 69.3992 28.3572C70.2841 27.4254 70.7812 26.1615 70.7812 24.8438C70.7812 23.526 70.2841 22.2621 69.3992 21.3303C68.5142 20.3985 67.314 19.875 66.0625 19.875H37.75C36.4985 19.875 35.2983 20.3985 34.4133 21.3303C33.5284 22.2621 33.0312 23.526 33.0312 24.8438C33.0312 26.1615 33.5284 27.4254 34.4133 28.3572C35.2983 29.289 36.4985 29.8125 37.75 29.8125H66.0625Z" fill="#053E4A"/>
<path id="Vector_2" d="M99.0938 43.9238V24.0487C99.1187 20.9042 98.5527 17.7855 97.4286 14.8722C96.3044 11.9588 94.6442 9.30836 92.5435 7.07324C90.4427 4.83813 87.943 3.06252 85.188 1.84861C82.4331 0.634697 79.4774 0.00644209 76.4909 0L27.3216 0C21.3308 0.0131285 15.5889 2.52487 11.3527 6.98545C7.11658 11.446 4.73122 17.4921 4.71875 23.8003V135.2C4.73122 141.508 7.11658 147.554 11.3527 152.015C15.5889 156.475 21.3308 158.987 27.3216 159H76.4909C82.4818 158.987 88.2236 156.475 92.4598 152.015C96.6959 147.554 99.0813 141.508 99.0938 135.2V134.951C107.495 131.077 114.641 124.709 119.66 116.626C124.678 108.543 127.351 99.0947 127.351 89.4375C127.351 79.7803 124.678 70.3324 119.66 62.2493C114.641 54.1661 107.495 47.798 99.0938 43.9238ZM76.4909 149.062H27.3216C23.8299 149.062 20.4813 147.602 18.0123 145.002C15.5433 142.402 14.1563 138.876 14.1563 135.2V23.8003C14.1563 20.1237 15.5433 16.5976 18.0123 13.9978C20.4813 11.398 23.8299 9.9375 27.3216 9.9375H76.4909C79.9826 9.9375 83.3312 11.398 85.8002 13.9978C88.2692 16.5976 89.6563 20.1237 89.6563 23.8003V40.7437C86.5492 40.0861 83.388 39.7533 80.2188 39.75C67.8382 39.7486 55.9613 44.9119 47.1875 54.1097V49.6875C47.1875 48.3697 46.6903 47.1059 45.8054 46.1741C44.9205 45.2422 43.7202 44.7188 42.4688 44.7188C41.2173 44.7188 40.017 45.2422 39.1321 46.1741C38.2472 47.1059 37.75 48.3697 37.75 49.6875V129.188C37.75 130.505 38.2472 131.769 39.1321 132.701C40.017 133.633 41.2173 134.156 42.4688 134.156C43.7202 134.156 44.9205 133.633 45.8054 132.701C46.6903 131.769 47.1875 130.505 47.1875 129.188V124.765C55.9613 133.963 67.8382 139.126 80.2188 139.125C83.2761 139.116 86.3256 138.8 89.326 138.181C88.6817 141.262 87.0587 144.019 84.7251 145.998C82.3915 147.976 79.4869 149.057 76.4909 149.062ZM80.2188 129.188C73.4693 129.181 66.845 127.269 61.0355 123.652C55.2261 120.034 50.4441 114.842 47.1875 108.617V70.2581C50.401 64.1155 55.1006 58.9774 60.8094 55.3654C66.5182 51.7534 73.0328 49.796 79.6922 49.6919C86.3516 49.5878 92.9185 51.3407 98.7266 54.7727C104.535 58.2047 109.377 63.1936 112.762 69.233C116.148 75.2725 117.955 82.1475 118.002 89.1603C118.048 96.1731 116.332 103.074 113.027 109.163C109.722 115.251 104.946 120.311 99.184 123.828C93.422 127.345 86.8789 129.194 80.2188 129.188Z" fill="#053E4A"/>
<path id="Vector_3" d="M80.2188 74.5312H89.6562C90.9077 74.5312 92.108 74.0078 92.9929 73.0759C93.8779 72.1441 94.375 70.8803 94.375 69.5625C94.375 68.2447 93.8779 66.9809 92.9929 66.0491C92.108 65.1172 90.9077 64.5938 89.6562 64.5938H84.9375C84.9375 63.276 84.4404 62.0121 83.5554 61.0803C82.6705 60.1485 81.4702 59.625 80.2188 59.625C78.9673 59.625 77.767 60.1485 76.8821 61.0803C75.9971 62.0121 75.5 63.276 75.5 64.5938V65.4881C72.3792 66.6805 69.7556 68.99 68.0879 72.0127C66.4203 75.0355 65.8146 78.5793 66.3768 82.0247C66.939 85.47 68.6333 88.5977 71.1635 90.861C73.6937 93.1242 76.8989 94.3791 80.2188 94.4062C81.4702 94.4062 82.6705 94.9297 83.5554 95.8616C84.4404 96.7934 84.9375 98.0572 84.9375 99.375C84.9375 100.693 84.4404 101.957 83.5554 102.888C82.6705 103.82 81.4702 104.344 80.2188 104.344H70.7812C69.5298 104.344 68.3295 104.867 67.4446 105.799C66.5597 106.731 66.0625 107.995 66.0625 109.312C66.0625 110.63 66.5597 111.894 67.4446 112.826C68.3295 113.758 69.5298 114.281 70.7812 114.281H75.5C75.5 115.599 75.9971 116.863 76.8821 117.795C77.767 118.727 78.9673 119.25 80.2188 119.25C81.4702 119.25 82.6705 118.727 83.5554 117.795C84.4404 116.863 84.9375 115.599 84.9375 114.281V113.387C88.0583 112.194 90.6819 109.885 92.3496 106.862C94.0173 103.839 94.6229 100.296 94.0607 96.8503C93.4985 93.405 91.8042 90.2773 89.274 88.014C86.7438 85.7508 83.5386 84.4959 80.2188 84.4688C78.9673 84.4688 77.767 83.9453 76.8821 83.0134C75.9971 82.0816 75.5 80.8178 75.5 79.5C75.5 78.1822 75.9971 76.9184 76.8821 75.9866C77.767 75.0547 78.9673 74.5312 80.2188 74.5312Z" fill="#053E4A"/>
<path id="Vector_4" d="M117.941 34.7897L130.163 34.7897L128.747 36.2307C127.859 37.1663 127.36 38.4353 127.36 39.7585C127.36 41.0817 127.859 42.3507 128.747 43.2863C129.636 44.2219 130.841 44.7476 132.098 44.7476C133.354 44.7476 134.559 44.2219 135.448 43.2863L144.885 33.3488C145.328 32.8869 145.679 32.3373 145.918 31.7318C146.158 31.1264 146.281 30.4769 146.281 29.821C146.281 29.165 146.158 28.5156 145.918 27.9101C145.679 27.3046 145.328 26.7551 144.885 26.2932L135.448 16.3557C135.009 15.8899 134.487 15.5203 133.912 15.268C133.337 15.0158 132.721 14.8859 132.098 14.8859C131.475 14.8859 130.858 15.0158 130.283 15.268C129.708 15.5203 129.186 15.8899 128.747 16.3557C128.305 16.8176 127.954 17.3671 127.714 17.9726C127.475 18.5781 127.352 19.2275 127.352 19.8835C127.352 20.5394 127.475 21.1889 127.714 21.7943C127.954 22.3998 128.305 22.9494 128.747 23.4113L130.163 24.8522L117.941 24.8522C116.69 24.8522 115.49 25.3757 114.605 26.3075C113.72 27.2394 113.223 28.5032 113.223 29.821C113.223 31.1388 113.72 32.4026 114.605 33.3344C115.49 34.2662 116.69 34.7897 117.941 34.7897Z" fill="#053E4A"/>
</g>
</g>
</svg>
