<svg width="160" height="146" viewBox="0 0 160 146" fill="none" xmlns="http://www.w3.org/2000/svg">
<path fill-rule="evenodd" clip-rule="evenodd" d="M97.5334 109.154C96.9939 109.661 96.1782 109.615 95.7029 109.027C95.2261 108.452 95.2792 107.554 95.8083 107.036C121.737 82.135 121.705 80.5345 120.859 41.7036C120.752 36.7075 120.625 31.1012 120.541 24.7232C113.662 24.9418 106.804 24.4468 100.18 22.9502C93.3218 21.4078 86.7175 18.8053 80.6006 14.8457C74.4306 18.3917 68.0282 20.9815 61.4456 22.6506C54.9898 24.2972 48.3445 25.0337 41.5719 24.9073L41.5391 27.7506C41.4119 38.8371 41.2754 49.9581 41.5719 60.9291C41.5926 61.7125 41.031 62.3571 40.3126 62.3796C39.6025 62.4032 38.9999 61.7923 38.9781 61.0101C38.6817 50.0042 38.8196 38.8491 38.9468 27.7281L38.9999 23.4107C39.0205 22.6397 39.6242 22.0296 40.3333 22.0525C47.3286 22.306 54.1859 21.5916 60.864 19.8996C67.4467 18.2308 73.86 15.5942 80.0304 11.9792C80.421 11.7606 80.9198 11.7493 81.3214 12.0253C87.3428 16.0431 93.894 18.6568 100.699 20.1876C107.535 21.7303 114.648 22.1796 121.77 21.8571H121.801C122.521 21.8571 123.103 22.4785 123.114 23.2498C123.199 30.157 123.335 36.247 123.453 41.6346C124.319 81.7318 124.351 83.3781 97.5334 109.154ZM88.9399 60.964H74.2937H74.1982C72.335 60.9869 70.6427 61.8272 69.4147 63.1626C68.1661 64.5212 67.3932 66.3973 67.3932 68.4696V83.8615H95.1103V67.6637C95.1103 65.8221 94.4122 64.141 93.3004 62.9324C92.1994 61.7354 90.686 60.9869 89.0137 60.964H88.9399ZM83.0988 44.8697H79.3943C77.7224 44.8697 76.198 45.6182 75.0969 46.8152C73.9972 48.0122 73.3088 49.6701 73.3088 51.5008V58.1316H74.2937H88.9399H89.0465H89.183V51.5012C89.183 49.6705 88.5066 48.0126 87.4059 46.8268C86.2938 45.6182 84.7708 44.8697 83.0988 44.8697ZM79.3943 42.0493H83.0988C85.4799 42.0493 87.6599 43.1083 89.2254 44.8236C90.8125 46.5388 91.7867 48.9104 91.7867 51.5012V58.6498C93.057 59.1336 94.1895 59.9162 95.1306 60.9291C96.7288 62.6676 97.7137 65.0507 97.7137 67.6637V85.2778C97.7137 86.0488 97.1207 86.6938 96.412 86.6938H66.0912C65.3728 86.6938 64.7895 86.0485 64.7895 85.2778V68.47C64.7895 65.6264 65.8592 63.0362 67.5735 61.1597C68.4626 60.2042 69.5213 59.4216 70.7058 58.8917V51.5012C70.7058 48.9107 71.6796 46.5392 73.2561 44.8236C74.8442 43.1083 77.0133 42.0493 79.3943 42.0493ZM82.76 70.9566C82.379 70.5306 81.8392 70.2775 81.2462 70.2775C80.685 70.2775 80.1672 70.5073 79.7863 70.8872L79.7332 70.9566C79.3523 71.371 79.1089 71.9586 79.1089 72.6032C79.1089 73.006 79.2034 73.3858 79.363 73.72C79.5216 74.0309 79.7539 74.3068 80.0297 74.5142C80.4203 74.7561 80.6854 75.2166 80.6854 75.7461V77.4842H81.8068V75.7461C81.8068 75.2852 82.0184 74.8363 82.4107 74.5603C82.7069 74.353 82.9613 74.0537 83.1305 73.72C83.2891 73.3975 83.3846 73.0063 83.3846 72.6032C83.3846 71.9586 83.1509 71.371 82.76 70.9566ZM81.2466 67.4455C82.5483 67.4455 83.7331 68.0211 84.5905 68.9534C85.4582 69.8856 85.988 71.1756 85.988 72.6028C85.988 73.4773 85.7763 74.3293 85.4061 75.0662C85.152 75.5841 84.8132 76.0446 84.4102 76.4361V78.8991C84.4102 79.6825 83.8283 80.3155 83.1085 80.3155H79.3837C78.6639 80.3155 78.082 79.6825 78.082 78.8991V76.4361C77.691 76.0446 77.3415 75.5841 77.0874 75.0662C76.7172 74.329 76.5055 73.4773 76.5055 72.6028C76.5055 71.1752 77.0343 69.8856 77.8917 68.9534L77.9765 68.8727C78.8331 67.9866 79.9873 67.4455 81.2466 67.4455ZM151.845 21.5695C152.565 21.5695 153.147 22.2025 153.147 22.9851C153.147 23.7565 152.565 24.4007 151.845 24.4007H139.357C138.637 24.4007 138.056 23.7561 138.056 22.9851C138.056 22.2021 138.638 21.5695 139.357 21.5695H151.845ZM158.238 35.4876C158.957 35.4876 159.539 36.1322 159.539 36.9032C159.539 37.6862 158.957 38.3192 158.238 38.3192H139.357C138.637 38.3192 138.056 37.6862 138.056 36.9032C138.056 36.1318 138.638 35.4876 139.357 35.4876H158.238ZM151.845 49.417C152.565 49.417 153.147 50.05 153.147 50.833C153.147 51.616 152.565 52.249 151.845 52.249H139.357C138.637 52.249 138.056 51.616 138.056 50.833C138.056 50.05 138.638 49.417 139.357 49.417H151.845ZM158.238 63.3471C158.957 63.3471 159.539 63.9801 159.539 64.7631C159.539 65.5345 158.957 66.1787 158.238 66.1787H139.357C138.637 66.1787 138.056 65.5341 138.056 64.7631C138.056 63.9801 138.638 63.3471 139.357 63.3471H158.238ZM151.845 77.2652C152.565 77.2652 153.147 77.9102 153.147 78.6812C153.147 79.4642 152.565 80.0968 151.845 80.0968H139.357C138.637 80.0968 138.056 79.4638 138.056 78.6812C138.056 77.9098 138.638 77.2652 139.357 77.2652H151.845ZM27.0936 139.696C26.3738 139.696 25.7919 139.063 25.7919 138.28C25.7919 137.497 26.3738 136.864 27.0936 136.864H117.895C118.615 136.864 119.197 137.497 119.197 138.28C119.197 139.063 118.615 139.696 117.895 139.696H27.0936ZM80.262 145.832C79.5422 145.832 78.9603 145.199 78.9603 144.416C78.9603 143.633 79.5422 143 80.262 143H143.093C143.813 143 144.395 143.633 144.395 144.416C144.395 145.199 143.813 145.832 143.093 145.832H80.262ZM125.251 139.696C124.531 139.696 123.949 139.063 123.949 138.28C123.949 137.497 124.531 136.864 125.251 136.864H133.102C133.822 136.864 134.404 137.497 134.404 138.28C134.404 139.063 133.822 139.696 133.102 139.696H125.251ZM23.516 145.59C22.7975 145.59 22.2143 144.957 22.2143 144.174C22.2143 143.392 22.7972 142.758 23.516 142.758H53.2862C54.006 142.758 54.5879 143.392 54.5879 144.174C54.5879 144.957 54.006 145.59 53.2862 145.59H23.516ZM8.65807 24.4007C7.93827 24.4007 7.35637 23.7561 7.35637 22.9851C7.35637 22.2021 7.93827 21.5695 8.65807 21.5695H21.1459C21.8657 21.5695 22.4476 22.2025 22.4476 22.9851C22.4476 23.7565 21.8657 24.4007 21.1459 24.4007H8.65807ZM2.26539 38.3196C1.54662 38.3196 0.963684 37.6866 0.963684 36.9036C0.963684 36.1322 1.54662 35.488 2.26539 35.488H21.1459C21.8657 35.488 22.4476 36.1326 22.4476 36.9036C22.4476 37.6866 21.8657 38.3196 21.1459 38.3196H2.26539ZM8.65807 52.2493C7.93827 52.2493 7.35637 51.6163 7.35637 50.8333C7.35637 50.0503 7.93827 49.4173 8.65807 49.4173H21.1459C21.8657 49.4173 22.4476 50.0503 22.4476 50.8333C22.4476 51.6163 21.8657 52.2493 21.1459 52.2493H8.65807ZM2.26539 66.1791C1.54662 66.1791 0.963684 65.5345 0.963684 64.7635C0.963684 63.9805 1.54662 63.3475 2.26539 63.3475H21.1459C21.8657 63.3475 22.4476 63.9805 22.4476 64.7635C22.4476 65.5349 21.8657 66.1791 21.1459 66.1791H2.26539ZM8.65807 80.0972C7.93827 80.0972 7.35637 79.4642 7.35637 78.6816C7.35637 77.9102 7.93827 77.2656 8.65807 77.2656H21.1459C21.8657 77.2656 22.4476 77.9106 22.4476 78.6816C22.4476 79.4646 21.8657 80.0972 21.1459 80.0972H8.65807ZM131.992 11.3005C121.843 12.7742 112.445 12.82 103.989 11.1276C95.385 9.4011 87.7448 5.8551 81.289 0.167847C73.6053 5.6016 65.4779 9.26272 56.9159 11.116C48.5244 12.9351 39.7083 13.027 30.4592 11.3458L30.4481 21.3385C30.4168 55.4953 30.395 72.13 34.3426 84.4832C38.0784 96.1105 45.4863 104.226 59.9426 120.044C62.5884 122.934 65.4665 126.088 68.6002 129.553H94.2098C98.1997 125.041 101.704 121.149 104.856 117.649C118.265 102.764 125.124 95.1546 128.552 84.3793C132.161 73.0168 132.119 57.7862 132.034 26.6451L131.992 11.3005Z" fill="#7DEAFF"/>
</svg>
